# xmcd CD database file
#
# Track frame offsets:
#	182
#	45152
#	82892
#	111332
#	151147
#	196742
#	225780
#	284487
#
# Disc length: 4132 seconds
#
# Revision: 0
# Processed by: cddbd v1.4PL0 Copyright (c) Steve Scherf et al.
# Submitted via: CDex 1.50
#
DISCID=51102208
DTITLE=Ed Schuller and Band - The Eleventh Hour
DYEAR=1992
DGENRE=Jazz
TTITLE0=O-Zone
TTITLE1=The Eleventh Hour (part 1)
TTITLE2=The Eleventh Hour (part 2)
TTITLE3=PM in the AM
TTITLE4=Keep Still/Mountain
TTITLE5=Love Lite
TTITLE6=Shamal
TTITLE7=For Dodo
EXTD=YEAR: 1992
EXTT0=
EXTT1=
EXTT2=
EXTT3=
EXTT4=
EXTT5=
EXTT6=
EXTT7=
PLAYORDER=
